<svg width="162" height="162" viewBox="0 0 162 162" fill="none" xmlns="http://www.w3.org/2000/svg">
<g filter="url(#filter0_d_52_2698)">
<rect x="31" y="31" width="100" height="100" rx="20" fill="url(#paint0_linear_52_2698)" fill-opacity="0.8"/>
</g>
<path fill-rule="evenodd" clip-rule="evenodd" d="M75.3401 55.5354C76.2058 55.4341 77.0826 55.5781 77.8704 55.951L89.6788 61.5388C90.231 61.8002 90.7264 62.1678 91.1366 62.6206C91.5468 63.0734 91.8637 63.6026 92.0693 64.178C92.2749 64.7533 92.3652 65.3636 92.3349 65.9738C92.3046 66.584 92.1544 67.1823 91.8928 67.7345L88.5748 74.7426C88.047 75.8572 87.0982 76.7165 85.9369 77.1317C84.7757 77.5469 83.4971 77.4839 82.3823 76.9567L72.019 72.051C71.1891 71.6577 70.4943 71.0276 70.022 70.24L68.9366 68.4322C68.7519 68.1251 68.4666 67.8915 68.1291 67.7711C67.7915 67.6507 67.4228 67.6509 67.0854 67.7717L64.1395 68.826C60.2385 70.2183 56.598 66.1995 58.3718 62.4536L59.7362 59.5635C60.0735 58.8497 60.5869 58.2335 61.2282 57.7729C61.8694 57.3123 62.6173 57.0225 63.4015 56.9309L75.3401 55.5354ZM76.5432 58.7542C76.2807 58.6296 75.9884 58.5812 75.6998 58.6147L63.7612 60.0101C63.5004 60.0411 63.2517 60.138 63.0385 60.2915C62.8254 60.445 62.6547 60.6501 62.5425 60.8876L61.1719 63.7808C61.0415 64.0578 60.9961 64.3672 61.0413 64.6701C61.0865 64.9729 61.2204 65.2555 61.426 65.4824C61.6316 65.7092 61.8998 65.8701 62.1967 65.9448C62.4937 66.0194 62.806 66.0045 63.0945 65.9018L66.0404 64.8506C67.0528 64.4885 68.1595 64.4884 69.172 64.8502C70.1845 65.212 71.0405 65.9135 71.5941 66.8352L72.6795 68.6431C72.837 68.9061 73.069 69.1165 73.3462 69.2477L83.7095 74.1534C83.8935 74.2406 84.093 74.2907 84.2964 74.3008C84.4998 74.3109 84.7032 74.2808 84.895 74.2122C85.0868 74.1437 85.2632 74.0381 85.4141 73.9013C85.565 73.7646 85.6876 73.5995 85.7747 73.4154L89.0927 66.4073C89.1798 66.223 89.2297 66.0234 89.2396 65.8199C89.2494 65.6164 89.2191 65.4129 89.1502 65.221C89.0814 65.0292 88.9754 64.8529 88.8384 64.7021C88.7014 64.5512 88.5359 64.4289 88.3516 64.3421L76.5432 58.7542Z" fill="white"/>
<path fill-rule="evenodd" clip-rule="evenodd" d="M92.5564 66.3335C93.0842 65.2189 94.0331 64.3596 95.1943 63.9444C96.3555 63.5292 97.6341 63.5922 98.749 64.1194L101.552 65.4466C102.667 65.9739 103.527 66.9225 103.943 68.0838C104.359 69.2451 104.296 70.524 103.769 71.6392L98.6776 82.3901C98.1498 83.5047 97.201 84.364 96.0398 84.7792C94.8785 85.1944 93.5999 85.1314 92.4851 84.6042L89.6818 83.277C88.5673 82.7492 87.7079 81.8003 87.2927 80.6391C86.8775 79.4778 86.9405 78.1992 87.4678 77.0844L92.5564 66.3335ZM97.4249 66.9227C97.2408 66.8355 97.0414 66.7854 96.838 66.7753C96.6346 66.7652 96.4311 66.7953 96.2394 66.8638C96.0476 66.9324 95.8712 67.038 95.7202 67.1747C95.5693 67.3115 95.4468 67.4766 95.3596 67.6607L90.271 78.4116C90.0959 78.783 90.0753 79.2087 90.2136 79.5953C90.352 79.9819 90.638 80.2978 91.009 80.4737L93.8123 81.8009C93.9963 81.8881 94.1958 81.9382 94.3992 81.9483C94.6026 81.9584 94.806 81.9283 94.9978 81.8598C95.1896 81.7912 95.366 81.6856 95.5169 81.5488C95.6679 81.4121 95.7904 81.247 95.8775 81.0629L100.963 70.312C101.138 69.941 101.159 69.5156 101.022 69.1291C100.884 68.7425 100.599 68.4264 100.228 68.2499L97.4249 66.9227ZM69.039 101.517L81.1016 75.9588L83.9048 77.2829L71.8422 102.838C71.5814 103.39 71.2142 103.886 70.7617 104.297C70.3091 104.708 69.7799 105.026 69.2045 105.232C68.6291 105.438 68.0187 105.529 67.4082 105.499C66.7977 105.469 66.1991 105.319 65.6465 105.058L62.8464 103.734C62.2941 103.472 61.7988 103.105 61.3886 102.652C60.9784 102.199 60.6615 101.67 60.4558 101.095C60.2502 100.519 60.16 99.9091 60.1903 99.2988C60.2206 98.6886 60.3708 98.0903 60.6323 97.5381L72.5709 72.3121L75.3742 73.6393L63.4356 98.8653C63.3484 99.0494 63.2983 99.2488 63.2882 99.4522C63.2781 99.6556 63.3082 99.8591 63.3768 100.051C63.4453 100.243 63.5509 100.419 63.6877 100.57C63.8244 100.721 63.9895 100.843 64.1736 100.931L66.9737 102.255C67.1578 102.342 67.3572 102.392 67.5606 102.402C67.7641 102.412 67.9675 102.382 68.1592 102.313C68.351 102.245 68.5274 102.139 68.6784 102.003C68.8293 101.866 68.9518 101.701 69.039 101.517Z" fill="white"/>
<defs>
<filter id="filter0_d_52_2698" x="0" y="0" width="162" height="162" filterUnits="userSpaceOnUse" color-interpolation-filters="sRGB">
<feFlood flood-opacity="0" result="BackgroundImageFix"/>
<feColorMatrix in="SourceAlpha" type="matrix" values="0 0 0 0 0 0 0 0 0 0 0 0 0 0 0 0 0 0 127 0" result="hardAlpha"/>
<feMorphology radius="1" operator="dilate" in="SourceAlpha" result="effect1_dropShadow_52_2698"/>
<feOffset/>
<feGaussianBlur stdDeviation="15"/>
<feColorMatrix type="matrix" values="0 0 0 0 0 0 0 0 0 0 0 0 0 0 0 0 0 0 0.1 0"/>
<feBlend mode="normal" in2="BackgroundImageFix" result="effect1_dropShadow_52_2698"/>
<feBlend mode="normal" in="SourceGraphic" in2="effect1_dropShadow_52_2698" result="shape"/>
</filter>
<linearGradient id="paint0_linear_52_2698" x1="31" y1="81" x2="131" y2="81" gradientUnits="userSpaceOnUse">
<stop stop-color="#6873C6"/>
<stop offset="1" stop-color="#35BCB5"/>
</linearGradient>
</defs>
</svg>
