<svg width="162" height="162" viewBox="0 0 162 162" fill="none" xmlns="http://www.w3.org/2000/svg">
<g filter="url(#filter0_d_52_2714)">
<rect x="31" y="31" width="100" height="100" rx="20" fill="url(#paint0_linear_52_2714)" fill-opacity="0.8"/>
</g>
<path d="M67.5182 56.333C68.9869 56.333 70.4413 56.6223 71.7982 57.1844C73.1551 57.7464 74.3881 58.5702 75.4266 59.6088C76.4652 60.6473 77.289 61.8803 77.8511 63.2372C78.4131 64.5941 78.7024 66.0485 78.7024 67.5172V78.7014H67.5182C64.552 78.7014 61.7072 77.5231 59.6098 75.4256C57.5123 73.3282 56.334 70.4835 56.334 67.5172C56.334 64.551 57.5123 61.7062 59.6098 59.6088C61.7072 57.5113 64.552 56.333 67.5182 56.333ZM73.4393 73.4383V67.5172C73.4393 66.3461 73.092 65.2014 72.4414 64.2277C71.7908 63.2539 70.866 62.495 69.7841 62.0469C68.7022 61.5987 67.5116 61.4815 66.3631 61.7099C65.2145 61.9384 64.1595 62.5023 63.3314 63.3304C62.5033 64.1585 61.9394 65.2135 61.7109 66.3621C61.4825 67.5106 61.5997 68.7012 62.0479 69.7831C62.496 70.865 63.2549 71.7898 64.2286 72.4404C65.2024 73.091 66.3471 73.4383 67.5182 73.4383H73.4393ZM67.5182 83.9646H78.7024V95.1488C78.7024 97.3608 78.0465 99.5232 76.8175 101.362C75.5886 103.202 73.8419 104.635 71.7982 105.482C69.7546 106.328 67.5058 106.55 65.3363 106.118C63.1667 105.687 61.1739 104.621 59.6098 103.057C58.0456 101.493 56.9804 99.5002 56.5489 97.3307C56.1173 95.1612 56.3388 92.9124 57.1853 90.8688C58.0318 88.8251 59.4654 87.0784 61.3046 85.8495C63.1438 84.6205 65.3062 83.9646 67.5182 83.9646ZM67.5182 89.2277C66.3471 89.2277 65.2024 89.575 64.2286 90.2256C63.2549 90.8762 62.496 91.801 62.0479 92.8829C61.5997 93.9648 61.4825 95.1554 61.7109 96.3039C61.9394 97.4525 62.5033 98.5075 63.3314 99.3356C64.1595 100.164 65.2145 100.728 66.3631 100.956C67.5116 101.185 68.7022 101.067 69.7841 100.619C70.866 100.171 71.7908 99.4121 72.4414 98.4384C73.092 97.4646 73.4393 96.3199 73.4393 95.1488V89.2277H67.5182ZM95.1498 56.333C98.116 56.333 100.961 57.5113 103.058 59.6088C105.156 61.7062 106.334 64.551 106.334 67.5172C106.334 70.4835 105.156 73.3282 103.058 75.4256C100.961 77.5231 98.116 78.7014 95.1498 78.7014H83.9656V67.5172C83.9656 64.551 85.1439 61.7062 87.2413 59.6088C89.3388 57.5113 92.1835 56.333 95.1498 56.333ZM95.1498 73.4383C96.3209 73.4383 97.4656 73.091 98.4393 72.4404C99.413 71.7898 100.172 70.865 100.62 69.7831C101.068 68.7012 101.186 67.5106 100.957 66.3621C100.729 65.2135 100.165 64.1585 99.3366 63.3304C98.5085 62.5023 97.4535 61.9384 96.3049 61.7099C95.1563 61.4815 93.9658 61.5987 92.8839 62.0469C91.802 62.495 90.8772 63.2539 90.2266 64.2277C89.576 65.2014 89.2287 66.3461 89.2287 67.5172V73.4383H95.1498ZM83.9656 83.9646H95.1498C97.3618 83.9646 99.5242 84.6205 101.363 85.8495C103.203 87.0784 104.636 88.8251 105.483 90.8688C106.329 92.9124 106.551 95.1612 106.119 97.3307C105.688 99.5002 104.622 101.493 103.058 103.057C101.494 104.621 99.5012 105.687 97.3317 106.118C95.1622 106.55 92.9134 106.328 90.8698 105.482C88.8261 104.635 87.0794 103.202 85.8504 101.362C84.6215 99.5232 83.9656 97.3608 83.9656 95.1488V83.9646ZM89.2287 89.2277V95.1488C89.2287 96.3199 89.576 97.4646 90.2266 98.4384C90.8772 99.4121 91.802 100.171 92.8839 100.619C93.9658 101.067 95.1563 101.185 96.3049 100.956C97.4535 100.728 98.5085 100.164 99.3366 99.3356C100.165 98.5075 100.729 97.4525 100.957 96.3039C101.186 95.1554 101.068 93.9648 100.62 92.8829C100.172 91.801 99.413 90.8762 98.4393 90.2256C97.4656 89.575 96.3209 89.2277 95.1498 89.2277H89.2287Z" fill="white"/>
<defs>
<filter id="filter0_d_52_2714" x="0" y="0" width="162" height="162" filterUnits="userSpaceOnUse" color-interpolation-filters="sRGB">
<feFlood flood-opacity="0" result="BackgroundImageFix"/>
<feColorMatrix in="SourceAlpha" type="matrix" values="0 0 0 0 0 0 0 0 0 0 0 0 0 0 0 0 0 0 127 0" result="hardAlpha"/>
<feMorphology radius="1" operator="dilate" in="SourceAlpha" result="effect1_dropShadow_52_2714"/>
<feOffset/>
<feGaussianBlur stdDeviation="15"/>
<feColorMatrix type="matrix" values="0 0 0 0 0 0 0 0 0 0 0 0 0 0 0 0 0 0 0.1 0"/>
<feBlend mode="normal" in2="BackgroundImageFix" result="effect1_dropShadow_52_2714"/>
<feBlend mode="normal" in="SourceGraphic" in2="effect1_dropShadow_52_2714" result="shape"/>
</filter>
<linearGradient id="paint0_linear_52_2714" x1="31" y1="81" x2="131" y2="81" gradientUnits="userSpaceOnUse">
<stop stop-color="#6873C6"/>
<stop offset="1" stop-color="#35BCB5"/>
</linearGradient>
</defs>
</svg>
