<svg width="162" height="162" viewBox="0 0 162 162" fill="none" xmlns="http://www.w3.org/2000/svg">
<g filter="url(#filter0_d_50_2666)">
<rect x="31" y="31" width="100" height="100" rx="20" fill="#FFD700" fill-opacity="0.5"/>
</g>
<path d="M84.5862 62.8966H105.276V69.7931H84.5862V62.8966ZM84.5862 90.4828H105.276V97.3793H84.5862V90.4828ZM70.7931 56H63.8966V62.8966H57V69.7931H63.8966V76.6897H70.7931V69.7931H77.6897V62.8966H70.7931V56ZM77.6897 88.4138L72.8621 83.5862L67.3448 89.1035L61.8276 83.5862L57 88.4138L62.5172 93.931L57 99.4483L61.8276 104.276L67.3448 98.7586L72.8621 104.276L77.6897 99.4483L72.1724 93.931L77.6897 88.4138ZM98.3793 102.552C98.3793 103.466 98.016 104.343 97.3693 104.99C96.7227 105.637 95.8456 106 94.931 106C94.0165 106 93.1394 105.637 92.4927 104.99C91.8461 104.343 91.4828 103.466 91.4828 102.552C91.4828 101.637 91.8461 100.76 92.4927 100.113C93.1394 99.4667 94.0165 99.1034 94.931 99.1034C95.8456 99.1034 96.7227 99.4667 97.3693 100.113C98.016 100.76 98.3793 101.637 98.3793 102.552ZM98.3793 85.3103C98.3793 86.2249 98.016 87.102 97.3693 87.7486C96.7227 88.3953 95.8456 88.7586 94.931 88.7586C94.0165 88.7586 93.1394 88.3953 92.4927 87.7486C91.8461 87.102 91.4828 86.2249 91.4828 85.3103C91.4828 84.3958 91.8461 83.5187 92.4927 82.872C93.1394 82.2254 94.0165 81.8621 94.931 81.8621C95.8456 81.8621 96.7227 82.2254 97.3693 82.872C98.016 83.5187 98.3793 84.3958 98.3793 85.3103Z" fill="white"/>
<defs>
<filter id="filter0_d_50_2666" x="0" y="0" width="162" height="162" filterUnits="userSpaceOnUse" color-interpolation-filters="sRGB">
<feFlood flood-opacity="0" result="BackgroundImageFix"/>
<feColorMatrix in="SourceAlpha" type="matrix" values="0 0 0 0 0 0 0 0 0 0 0 0 0 0 0 0 0 0 127 0" result="hardAlpha"/>
<feMorphology radius="1" operator="dilate" in="SourceAlpha" result="effect1_dropShadow_50_2666"/>
<feOffset/>
<feGaussianBlur stdDeviation="15"/>
<feColorMatrix type="matrix" values="0 0 0 0 0 0 0 0 0 0 0 0 0 0 0 0 0 0 0.1 0"/>
<feBlend mode="normal" in2="BackgroundImageFix" result="effect1_dropShadow_50_2666"/>
<feBlend mode="normal" in="SourceGraphic" in2="effect1_dropShadow_50_2666" result="shape"/>
</filter>
</defs>
</svg>
