<svg width="162" height="162" viewBox="0 0 162 162" fill="none" xmlns="http://www.w3.org/2000/svg">
<g filter="url(#filter0_d_50_2641)">
<rect x="31" y="31" width="100" height="100" rx="20" fill="#FF0000" fill-opacity="0.5"/>
</g>
<path d="M72.4615 79.0769C69.9114 79.0769 67.4657 78.0639 65.6624 76.2606C63.8592 74.4574 62.8462 72.0117 62.8462 69.4615V61.7692C62.8462 61.2592 63.0488 60.7701 63.4094 60.4094C63.7701 60.0488 64.2592 59.8462 64.7692 59.8462H66.6923C67.2023 59.8462 67.6915 59.6435 68.0521 59.2829C68.4128 58.9223 68.6154 58.4331 68.6154 57.9231C68.6154 57.413 68.4128 56.9239 68.0521 56.5633C67.6915 56.2026 67.2023 56 66.6923 56H64.7692C63.2391 56 61.7717 56.6078 60.6898 57.6898C59.6078 58.7717 59 60.2391 59 61.7692V69.4615C59.0025 71.6341 59.5323 73.7736 60.5438 75.6963C61.5554 77.619 63.0186 79.2674 64.8077 80.5C66.5283 82.014 67.9235 83.8617 68.9086 85.9311C69.8937 88.0004 70.4482 90.2484 70.5385 92.5385C70.5385 96.1087 71.9567 99.5327 74.4813 102.057C77.0058 104.582 80.4298 106 84 106C87.5702 106 90.9942 104.582 93.5187 102.057C96.0433 99.5327 97.4615 96.1087 97.4615 92.5385V90.3462C99.2743 89.8781 100.854 88.7649 101.905 87.2154C102.956 85.6658 103.405 83.7862 103.169 81.9288C102.934 80.0715 102.028 78.364 100.624 77.1263C99.2187 75.8886 97.4107 75.2058 95.5385 75.2058C93.6662 75.2058 91.8582 75.8886 90.4534 77.1263C89.0486 78.364 88.1434 80.0715 87.9075 81.9288C87.6716 83.7862 88.1211 85.6658 89.1719 87.2154C90.2227 88.7649 91.8026 89.8781 93.6154 90.3462V92.5385C93.6154 95.0886 92.6023 97.5343 90.7991 99.3376C88.9959 101.141 86.5502 102.154 84 102.154C81.4498 102.154 79.0041 101.141 77.2009 99.3376C75.3977 97.5343 74.3846 95.0886 74.3846 92.5385C74.4797 90.2455 75.0402 87.9959 76.032 85.9263C77.0238 83.8568 78.4262 82.0106 80.1538 80.5C81.9358 79.2631 83.3915 77.6129 84.3963 75.6904C85.401 73.768 85.9249 71.6307 85.9231 69.4615V61.7692C85.9231 60.2391 85.3152 58.7717 84.2333 57.6898C83.1514 56.6078 81.6839 56 80.1538 56H78.2308C77.7207 56 77.2316 56.2026 76.8709 56.5633C76.5103 56.9239 76.3077 57.413 76.3077 57.9231C76.3077 58.4331 76.5103 58.9223 76.8709 59.2829C77.2316 59.6435 77.7207 59.8462 78.2308 59.8462H80.1538C80.6639 59.8462 81.153 60.0488 81.5137 60.4094C81.8743 60.7701 82.0769 61.2592 82.0769 61.7692V69.4615C82.0769 70.7242 81.8282 71.9746 81.345 73.1412C80.8618 74.3078 80.1535 75.3678 79.2606 76.2606C78.3678 77.1535 77.3078 77.8618 76.1412 78.345C74.9746 78.8282 73.7242 79.0769 72.4615 79.0769ZM95.5385 86.7692C94.5184 86.7692 93.5401 86.364 92.8188 85.6427C92.0975 84.9214 91.6923 83.9431 91.6923 82.9231C91.6923 81.903 92.0975 80.9247 92.8188 80.2034C93.5401 79.4821 94.5184 79.0769 95.5385 79.0769C96.5585 79.0769 97.5368 79.4821 98.2581 80.2034C98.9794 80.9247 99.3846 81.903 99.3846 82.9231C99.3846 83.9431 98.9794 84.9214 98.2581 85.6427C97.5368 86.364 96.5585 86.7692 95.5385 86.7692Z" fill="white"/>
<defs>
<filter id="filter0_d_50_2641" x="0" y="0" width="162" height="162" filterUnits="userSpaceOnUse" color-interpolation-filters="sRGB">
<feFlood flood-opacity="0" result="BackgroundImageFix"/>
<feColorMatrix in="SourceAlpha" type="matrix" values="0 0 0 0 0 0 0 0 0 0 0 0 0 0 0 0 0 0 127 0" result="hardAlpha"/>
<feMorphology radius="1" operator="dilate" in="SourceAlpha" result="effect1_dropShadow_50_2641"/>
<feOffset/>
<feGaussianBlur stdDeviation="15"/>
<feColorMatrix type="matrix" values="0 0 0 0 0 0 0 0 0 0 0 0 0 0 0 0 0 0 0.1 0"/>
<feBlend mode="normal" in2="BackgroundImageFix" result="effect1_dropShadow_50_2641"/>
<feBlend mode="normal" in="SourceGraphic" in2="effect1_dropShadow_50_2641" result="shape"/>
</filter>
</defs>
</svg>
