<svg width="162" height="162" viewBox="0 0 162 162" fill="none" xmlns="http://www.w3.org/2000/svg">
<g filter="url(#filter0_d_50_2652)">
<rect x="31" y="31" width="100" height="100" rx="20" fill="black" fill-opacity="0.5"/>
</g>
<path d="M82.6199 57.875V62.25H87.5574C88.4349 62.25 89.2924 62.515 90.0174 63.0075L94.2599 65.8925C94.3649 65.9625 94.4816 65.9983 94.6099 66H104.865C105.362 66 105.839 66.1975 106.191 66.5492C106.542 66.9008 106.74 67.3777 106.74 67.875C106.74 68.3723 106.542 68.8492 106.191 69.2008C105.839 69.5525 105.362 69.75 104.865 69.75H100.92L109.335 88.95C109.503 89.3339 109.538 89.7632 109.434 90.1692C109.33 90.5752 109.092 90.9346 108.76 91.19C108.51 91.375 108.252 91.5467 107.985 91.705C107.352 92.0857 106.692 92.4191 106.01 92.7025C103.749 93.6481 101.321 94.1318 98.8699 94.125C96.4195 94.1356 93.9921 93.6527 91.7324 92.705C91.0503 92.4208 90.3902 92.0865 89.7574 91.705C89.4915 91.5525 89.2352 91.3839 88.9899 91.2L88.9774 91.19C88.645 90.9346 88.4077 90.5752 88.3034 90.1692C88.1992 89.7632 88.2341 89.3339 88.4024 88.95L96.8224 69.75H94.6074C93.7299 69.75 92.8724 69.485 92.1474 68.9925L87.9049 66.1075C87.8016 66.0375 87.6797 66.0001 87.5549 66H82.6199V102.25H93.8374C94.3347 102.25 94.8116 102.448 95.1632 102.799C95.5149 103.151 95.7124 103.628 95.7124 104.125C95.7124 104.622 95.5149 105.099 95.1632 105.451C94.8116 105.802 94.3347 106 93.8374 106H67.6524C67.1551 106 66.6782 105.802 66.3266 105.451C65.975 105.099 65.7774 104.622 65.7774 104.125C65.7774 103.628 65.975 103.151 66.3266 102.799C66.6782 102.448 67.1551 102.25 67.6524 102.25H78.8699V66H73.9324C73.8076 66.0001 73.6857 66.0375 73.5824 66.1075L69.3424 68.9925C68.6174 69.485 67.7599 69.75 66.8824 69.75H64.6674L73.0874 88.95C73.2504 89.323 73.2875 89.7389 73.1933 90.1349C73.099 90.5309 72.8785 90.8854 72.5649 91.145C72.3649 91.3075 72.1649 91.46 71.7899 91.7025C71.158 92.1125 70.4962 92.4744 69.8099 92.785C67.5525 93.8126 65.1001 94.3412 62.6199 94.335C60.1397 94.3412 57.6873 93.8126 55.4299 92.785C54.7437 92.4744 54.0818 92.1125 53.4499 91.7025C53.1838 91.5307 52.926 91.3463 52.6774 91.15C52.3657 90.888 52.1464 90.5327 52.0519 90.1366C51.9574 89.7405 51.9926 89.3246 52.1524 88.95L60.5699 69.75H56.6274C56.1301 69.75 55.6532 69.5525 55.3016 69.2008C54.95 68.8492 54.7524 68.3723 54.7524 67.875C54.7524 67.3777 54.95 66.9008 55.3016 66.5492C55.6532 66.1975 56.1301 66 56.6274 66H66.8824C67.0091 66 67.1266 65.9642 67.2349 65.8925L71.4724 63.0075C72.1974 62.5125 73.0574 62.25 73.9349 62.25H78.8699V57.875C78.8699 57.3777 79.0675 56.9008 79.4191 56.5492C79.7707 56.1975 80.2476 56 80.7449 56C81.2422 56 81.7191 56.1975 82.0707 56.5492C82.4224 56.9008 82.6199 57.3777 82.6199 57.875ZM56.2274 88.995C58.1945 90.0438 60.3907 90.5892 62.6199 90.5825C64.8491 90.5892 67.0453 90.0438 69.0124 88.995L62.6199 74.42L56.2274 88.995ZM92.5024 88.935C92.7074 89.035 92.9366 89.14 93.1899 89.25C94.5149 89.8075 96.4524 90.375 98.8699 90.375C101.074 90.3809 103.251 89.8886 105.237 88.935L98.8699 74.4175L92.5024 88.935Z" fill="white"/>
<defs>
<filter id="filter0_d_50_2652" x="0" y="0" width="162" height="162" filterUnits="userSpaceOnUse" color-interpolation-filters="sRGB">
<feFlood flood-opacity="0" result="BackgroundImageFix"/>
<feColorMatrix in="SourceAlpha" type="matrix" values="0 0 0 0 0 0 0 0 0 0 0 0 0 0 0 0 0 0 127 0" result="hardAlpha"/>
<feMorphology radius="1" operator="dilate" in="SourceAlpha" result="effect1_dropShadow_50_2652"/>
<feOffset/>
<feGaussianBlur stdDeviation="15"/>
<feColorMatrix type="matrix" values="0 0 0 0 0 0 0 0 0 0 0 0 0 0 0 0 0 0 0.1 0"/>
<feBlend mode="normal" in2="BackgroundImageFix" result="effect1_dropShadow_50_2652"/>
<feBlend mode="normal" in="SourceGraphic" in2="effect1_dropShadow_50_2652" result="shape"/>
</filter>
</defs>
</svg>
