<svg width="70" height="80" viewBox="0 0 70 80" fill="none" xmlns="http://www.w3.org/2000/svg">
<path d="M65.4307 76.2646H66.3624L67.5164 78.5551L68.6598 76.2646H69.5862V79.9419H68.8345V77.4099L67.7811 79.569H67.2411L66.1824 77.4099V79.9419H65.4307V76.2646Z" fill="black"/>
<path d="M63.2099 76.2646C63.6934 76.2646 64.0674 76.3767 64.3321 76.6009C64.6003 76.8215 64.7344 77.1332 64.7344 77.5359C64.7344 77.9597 64.6003 78.2907 64.3321 78.5288C64.0674 78.7635 63.6934 78.8808 63.2099 78.8808H62.437V79.9419H61.6006V76.2646H63.2099ZM63.2099 78.2084C63.4393 78.2084 63.6175 78.1558 63.7445 78.0508C63.8751 77.9422 63.9404 77.7793 63.9404 77.5622C63.9404 77.3521 63.8751 77.1945 63.7445 77.0894C63.6175 76.9843 63.4393 76.9318 63.2099 76.9318H62.437V78.2084H63.2099ZM63.1093 78.5708H63.9245L64.8244 79.9419H63.8769L63.1093 78.5708Z" fill="black"/>
<path d="M59.0617 76.2119C59.344 76.2119 59.6052 76.2592 59.8452 76.3538C60.0887 76.4483 60.3004 76.5814 60.4804 76.753C60.6604 76.9246 60.7998 77.1242 60.8986 77.3519C61.001 77.5795 61.0521 77.8282 61.0521 78.0978C61.0521 78.364 61.001 78.6127 60.8986 78.8438C60.7998 79.075 60.6604 79.2781 60.4804 79.4532C60.3004 79.6248 60.0887 79.7596 59.8452 79.8577C59.6052 79.9523 59.344 79.9995 59.0617 79.9995C58.7794 79.9995 58.5165 79.9523 58.273 79.8577C58.033 79.7596 57.823 79.6248 57.643 79.4532C57.463 79.2781 57.3219 79.075 57.2195 78.8438C57.1207 78.6127 57.0713 78.364 57.0713 78.0978C57.0713 77.8282 57.1207 77.5795 57.2195 77.3519C57.3219 77.1207 57.463 76.9211 57.643 76.753C57.823 76.5814 58.033 76.4483 58.273 76.3538C58.5165 76.2592 58.7794 76.2119 59.0617 76.2119ZM59.0723 76.9106C58.917 76.9106 58.7688 76.9404 58.6276 76.9999C58.49 77.0594 58.3682 77.1435 58.2624 77.2521C58.16 77.3606 58.0789 77.4867 58.0189 77.6303C57.9589 77.7739 57.9289 77.9297 57.9289 78.0978C57.9289 78.2659 57.9589 78.4235 58.0189 78.5706C58.0789 78.7142 58.1618 78.8421 58.2677 78.9541C58.3735 79.0627 58.4953 79.1485 58.6329 79.2115C58.7706 79.2711 58.917 79.3008 59.0723 79.3008C59.2276 79.3008 59.3723 79.2711 59.5064 79.2115C59.644 79.1485 59.764 79.0627 59.8663 78.9541C59.9687 78.8421 60.0481 78.7142 60.1046 78.5706C60.1646 78.4235 60.1946 78.2659 60.1946 78.0978C60.1946 77.9297 60.1646 77.7739 60.1046 77.6303C60.0481 77.4867 59.9687 77.3606 59.8663 77.2521C59.764 77.1435 59.644 77.0594 59.5064 76.9999C59.3723 76.9404 59.2276 76.9106 59.0723 76.9106Z" fill="black"/>
<path d="M54.1875 76.2646H56.8502V76.9318H55.0239V77.8616H56.6967V78.5288H55.0239V79.9419H54.1875V76.2646Z" fill="black"/>
<path d="M50.6436 76.2646H53.7404V76.9476H52.6075V79.9419H51.7711V76.9476H50.6436V76.2646Z" fill="black"/>
<path d="M48.5706 76.2646H49.4282L51.0057 79.9419H50.1164L48.9729 77.0947L47.8242 79.9419H46.9561L48.5706 76.2646ZM47.856 78.5603H50.0423V79.2065H47.856V78.5603Z" fill="black"/>
<path d="M44.4375 76.2646H45.2739V79.2433H46.8567V79.9419H44.4375V76.2646Z" fill="black"/>
<path d="M42.4218 76.2646C42.8912 76.2646 43.2547 76.3767 43.5123 76.6009C43.7735 76.8215 43.9041 77.1332 43.9041 77.5359C43.9041 77.9597 43.7735 78.2907 43.5123 78.5288C43.2547 78.7635 42.8912 78.8808 42.4218 78.8808H41.3207L41.686 78.5183V79.9419H40.8496V76.2646H42.4218ZM42.3795 78.2084C42.6124 78.2084 42.7924 78.1558 42.9194 78.0508C43.0465 77.9422 43.11 77.7793 43.11 77.5622C43.11 77.3521 43.0465 77.1945 42.9194 77.0894C42.7924 76.9843 42.6124 76.9318 42.3795 76.9318H41.3207L41.686 76.5693V78.5761L41.3207 78.2084H42.3795Z" fill="black"/>
<path d="M35.8779 76.2646H38.9747V76.9476H37.8419V79.9419H37.0055V76.9476H35.8779V76.2646Z" fill="black"/>
<path d="M32.709 76.2646H35.5305V76.9318H33.5454V77.7618H35.3294V78.429H33.5454V79.2748H35.5887V79.9419H32.709V76.2646Z" fill="black"/>
<path d="M28.8047 76.2646H29.6411V78.014L31.1763 76.2646H32.1503L29.6411 79.0121V79.9419H28.8047V76.2646ZM30.6839 77.6988L32.2403 79.9419H31.2398L30.1281 78.3555L30.6839 77.6988Z" fill="black"/>
<path d="M26.5829 76.2646C27.0664 76.2646 27.4405 76.3767 27.7052 76.6009C27.9734 76.8215 28.1075 77.1332 28.1075 77.5359C28.1075 77.9597 27.9734 78.2907 27.7052 78.5288C27.4405 78.7635 27.0664 78.8808 26.5829 78.8808H25.81V79.9419H24.9736V76.2646H26.5829ZM26.5829 78.2084C26.8123 78.2084 26.9905 78.1558 27.1176 78.0508C27.2481 77.9422 27.3134 77.7793 27.3134 77.5622C27.3134 77.3521 27.2481 77.1945 27.1176 77.0894C26.9905 76.9843 26.8123 76.9318 26.5829 76.9318H25.81V78.2084H26.5829ZM26.4823 78.5708H27.2976L28.1975 79.9419H27.2499L26.4823 78.5708Z" fill="black"/>
<path d="M22.1478 76.2646H23.0053L24.5829 79.9419H23.6935L22.5501 77.0947L21.4014 79.9419H20.5332L22.1478 76.2646ZM21.4331 78.5603H23.6194V79.2065H21.4331V78.5603Z" fill="black"/>
<path d="M15.9795 76.2646H16.9112L18.0652 78.5551L19.2086 76.2646H20.135V79.9419H19.3833V77.4099L18.3299 79.569H17.7899L16.7312 77.4099V79.9419H15.9795V76.2646Z" fill="black"/>
<path d="M11.0078 76.2646H14.1046V76.9476H12.9718V79.9419H12.1354V76.9476H11.0078V76.2646Z" fill="black"/>
<path d="M9.30808 76.2646C9.57982 76.2646 9.81451 76.3014 10.0121 76.375C10.2098 76.4485 10.3615 76.5553 10.4674 76.6954C10.5768 76.832 10.6315 76.9949 10.6315 77.184C10.6315 77.3836 10.5733 77.557 10.4568 77.704C10.3439 77.8476 10.1886 77.9439 9.99096 77.993C10.2309 78.0385 10.4198 78.1453 10.5574 78.3134C10.695 78.478 10.7638 78.6812 10.7638 78.9228C10.7638 79.1329 10.7056 79.3151 10.5891 79.4692C10.4762 79.6197 10.3156 79.7371 10.1074 79.8211C9.89921 79.9017 9.65217 79.9419 9.36631 79.9419H7.60352V76.2646H9.30808ZM9.26573 77.7513C9.42101 77.7513 9.54453 77.7146 9.63629 77.641C9.72804 77.564 9.77392 77.4589 9.77392 77.3258C9.77392 77.1962 9.72804 77.0964 9.63629 77.0264C9.54453 76.9528 9.42101 76.9178 9.26573 76.9213H8.43992V77.7513H9.26573ZM9.26573 79.2853C9.46336 79.2853 9.61864 79.245 9.73157 79.1645C9.8445 79.0839 9.90097 78.9701 9.90097 78.823C9.90097 78.6864 9.8445 78.5778 9.73157 78.4973C9.61864 78.4167 9.46336 78.3782 9.26573 78.3817H8.43992V79.2853H9.26573Z" fill="black"/>
<path d="M4.06836 76.2646H6.88989V76.9318H4.90476V77.7618H6.68873V78.429H4.90476V79.2748H6.94812V79.9419H4.06836V76.2646Z" fill="black"/>
<path d="M1.56693 76.2646C1.85632 76.2646 2.11923 76.3102 2.35568 76.4012C2.59566 76.4888 2.80212 76.6149 2.97504 76.7795C3.14797 76.9406 3.28208 77.1332 3.37736 77.3573C3.47265 77.5815 3.52029 77.8301 3.52029 78.1033C3.52029 78.373 3.47265 78.6199 3.37736 78.844C3.28208 79.0682 3.14621 79.2625 2.96975 79.4271C2.7933 79.5917 2.58331 79.7196 2.3398 79.8106C2.09982 79.8982 1.83338 79.9419 1.54046 79.9419H0V76.2646H1.56693ZM1.5881 79.2643C1.74691 79.2643 1.89161 79.2363 2.02218 79.1802C2.15276 79.1242 2.26569 79.0454 2.36098 78.9438C2.45979 78.8388 2.53567 78.7162 2.58861 78.5761C2.64154 78.436 2.66801 78.2802 2.66801 78.1086C2.66801 77.9369 2.63978 77.7811 2.58331 77.641C2.52685 77.4974 2.44921 77.3731 2.35039 77.268C2.25158 77.1595 2.13335 77.0772 1.99572 77.0211C1.86161 76.9651 1.71339 76.9371 1.55105 76.9371H0.836401V79.2643H1.5881Z" fill="black"/>
<path d="M60.2949 60.1748H62.9057L64.9774 63.2585L67.0774 60.1748H69.7024L66.4105 64.8919L70.0004 70.0315H67.3044L64.9774 66.6661L62.6787 70.0315H60.0537L63.6294 64.9905L60.2949 60.1748Z" fill="black"/>
<path d="M54.2268 60.0342C54.9835 60.0342 55.6835 60.1609 56.3268 60.4144C56.9795 60.6678 57.547 61.0245 58.0295 61.4845C58.5119 61.9445 58.8855 62.4796 59.1504 63.0898C59.4247 63.6999 59.5619 64.3664 59.5619 65.0893C59.5619 65.8027 59.4247 66.4692 59.1504 67.0887C58.8855 67.7083 58.5119 68.2528 58.0295 68.7221C57.547 69.1821 56.9795 69.5435 56.3268 69.8064C55.6835 70.0598 54.9835 70.1866 54.2268 70.1866C53.47 70.1866 52.7653 70.0598 52.1126 69.8064C51.4693 69.5435 50.9065 69.1821 50.424 68.7221C49.9416 68.2528 49.5632 67.7083 49.2889 67.0887C49.024 66.4692 48.8916 65.8027 48.8916 65.0893C48.8916 64.3664 49.024 63.6999 49.2889 63.0898C49.5632 62.4702 49.9416 61.9351 50.424 61.4845C50.9065 61.0245 51.4693 60.6678 52.1126 60.4144C52.7653 60.1609 53.47 60.0342 54.2268 60.0342ZM54.2551 61.9069C53.8389 61.9069 53.4416 61.9867 53.0632 62.1463C52.6943 62.3059 52.368 62.5312 52.0842 62.8222C51.8099 63.1132 51.5923 63.4512 51.4315 63.836C51.2707 64.2209 51.1903 64.6387 51.1903 65.0893C51.1903 65.5398 51.2707 65.9623 51.4315 66.3565C51.5923 66.7414 51.8146 67.0841 52.0984 67.3844C52.3822 67.6755 52.7085 67.9054 53.0774 68.0744C53.4463 68.234 53.8389 68.3138 54.2551 68.3138C54.6713 68.3138 55.0592 68.234 55.4186 68.0744C55.7876 67.9054 56.1092 67.6755 56.3835 67.3844C56.6578 67.0841 56.8707 66.7414 57.022 66.3565C57.1828 65.9623 57.2632 65.5398 57.2632 65.0893C57.2632 64.6387 57.1828 64.2209 57.022 63.836C56.8707 63.4512 56.6578 63.1132 56.3835 62.8222C56.1092 62.5312 55.7876 62.3059 55.4186 62.1463C55.0592 61.9867 54.6713 61.9069 54.2551 61.9069Z" fill="black"/>
<path d="M44.0689 60.1748C44.7973 60.1748 45.4264 60.2734 45.9561 60.4705C46.4858 60.6676 46.8926 60.954 47.1764 61.3294C47.4696 61.6956 47.6162 62.1321 47.6162 62.639C47.6162 63.1741 47.4602 63.6387 47.148 64.033C46.8453 64.4179 46.4291 64.676 45.8993 64.8074C46.5426 64.9295 47.0487 65.2158 47.4176 65.6664C47.7865 66.1076 47.971 66.6521 47.971 67.2998C47.971 67.863 47.8149 68.3512 47.5027 68.7642C47.2 69.1679 46.7696 69.4823 46.2115 69.7076C45.6534 69.9235 44.9912 70.0315 44.225 70.0315H39.5V60.1748H44.0689ZM43.9554 64.1597C44.3716 64.1597 44.7027 64.0612 44.9487 63.864C45.1946 63.6575 45.3176 63.3759 45.3176 63.0192C45.3176 62.6718 45.1946 62.4043 44.9487 62.2165C44.7027 62.0194 44.3716 61.9255 43.9554 61.9349H41.7419V64.1597H43.9554ZM43.9554 68.2714C44.4851 68.2714 44.9014 68.1634 45.2041 67.9475C45.5068 67.7316 45.6581 67.4265 45.6581 67.0322C45.6581 66.6661 45.5068 66.3751 45.2041 66.1592C44.9014 65.9433 44.4851 65.8401 43.9554 65.8494H41.7419V68.2714H43.9554Z" fill="black"/>
<path d="M29.998 60.1748H38.2987V62.0053H35.2622V70.0315H33.0204V62.0053H29.998V60.1748Z" fill="black"/>
<path d="M25.4449 60.1748C26.1733 60.1748 26.8023 60.2734 27.3321 60.4705C27.8618 60.6676 28.2686 60.954 28.5524 61.3294C28.8456 61.6956 28.9922 62.1321 28.9922 62.639C28.9922 63.1741 28.8361 63.6387 28.524 64.033C28.2213 64.4179 27.8051 64.676 27.2753 64.8074C27.9186 64.9295 28.4246 65.2158 28.7936 65.6664C29.1625 66.1076 29.3469 66.6521 29.3469 67.2998C29.3469 67.863 29.1909 68.3512 28.8787 68.7642C28.576 69.1679 28.1456 69.4823 27.5875 69.7076C27.0294 69.9235 26.3672 70.0315 25.601 70.0315H20.876V60.1748H25.4449ZM25.3314 64.1597C25.7476 64.1597 26.0787 64.0612 26.3246 63.864C26.5706 63.6575 26.6936 63.3759 26.6936 63.0192C26.6936 62.6718 26.5706 62.4043 26.3246 62.2165C26.0787 62.0194 25.7476 61.9255 25.3314 61.9349H23.1179V64.1597H25.3314ZM25.3314 68.2714C25.8611 68.2714 26.2773 68.1634 26.58 67.9475C26.8828 67.7316 27.0341 67.4265 27.0341 67.0322C27.0341 66.6661 26.8828 66.3751 26.58 66.1592C26.2773 65.9433 25.8611 65.8401 25.3314 65.8494H23.1179V68.2714H25.3314Z" fill="black"/>
<path d="M11.3984 60.1748H18.9613V61.9631H13.6403V64.1879H18.4221V65.9762H13.6403V68.2432H19.1174V70.0315H11.3984V60.1748Z" fill="black"/>
<path d="M4.69318 60.1748C5.46885 60.1748 6.17358 60.2968 6.80737 60.5409C7.45062 60.7756 8.004 61.1135 8.46751 61.5547C8.93103 61.9866 9.29049 62.5029 9.54589 63.1036C9.8013 63.7044 9.929 64.3709 9.929 65.1031C9.929 65.826 9.8013 66.4878 9.54589 67.0886C9.29049 67.6894 8.9263 68.2103 8.45332 68.6516C7.98035 69.0928 7.41751 69.4354 6.7648 69.6795C6.12156 69.9141 5.40737 70.0315 4.62223 70.0315H0.493164V60.1748H4.69318ZM4.74993 68.215C5.17561 68.215 5.56345 68.1399 5.91345 67.9897C6.26345 67.8396 6.56615 67.6283 6.82156 67.3561C7.08643 67.0745 7.2898 66.7459 7.4317 66.3704C7.57359 65.9949 7.64454 65.5772 7.64454 65.1172C7.64454 64.6572 7.56886 64.2395 7.41751 63.864C7.26616 63.4791 7.05805 63.1459 6.79318 62.8643C6.52832 62.5733 6.21142 62.3527 5.8425 62.2025C5.48304 62.0523 5.08574 61.9772 4.65061 61.9772H2.73506V68.215H4.74993Z" fill="black"/>
<path d="M54.7211 14.8994L36.1387 28.5742V47.069L54.7211 33.3942V14.8994Z" fill="url(#paint0_linear_109_355)"/>
<path fill-rule="evenodd" clip-rule="evenodd" d="M54.7493 14.8457V33.4079L36.1123 47.1229V28.5607L54.7493 14.8457ZM36.1669 28.5879V47.0153L54.6947 33.3807V14.9533L36.1669 28.5879Z" fill="url(#paint1_linear_109_355)"/>
<path d="M14.8828 33.2579V15.0068L33.4652 29.0878V47.1494L14.8828 33.2579Z" fill="url(#paint2_linear_109_355)"/>
<path fill-rule="evenodd" clip-rule="evenodd" d="M14.8555 14.9521L33.4925 29.0745V47.2037L14.8555 33.2715V14.9521ZM14.91 15.0616V33.2445L33.4379 47.0951V29.1013L14.91 15.0616Z" fill="url(#paint3_linear_109_355)"/>
<path d="M16.2744 12.4353L34.6658 0.0332031L53.2756 12.4353L34.6658 26.1101L16.2744 12.4353Z" fill="url(#paint4_linear_109_355)"/>
<path fill-rule="evenodd" clip-rule="evenodd" d="M34.6658 0L53.323 12.4337L34.6658 26.1433L16.2275 12.4337L34.6658 0ZM34.666 0.0653563L16.3214 12.4358L34.666 26.0758L53.2283 12.4359L34.666 0.0653563Z" fill="url(#paint5_linear_109_355)"/>
<defs>
<linearGradient id="paint0_linear_109_355" x1="36.1387" y1="30.9842" x2="54.7211" y2="30.9842" gradientUnits="userSpaceOnUse">
<stop stop-color="#6873C6"/>
<stop offset="1" stop-color="#35BCB5"/>
</linearGradient>
<linearGradient id="paint1_linear_109_355" x1="36.1123" y1="30.9843" x2="54.7493" y2="30.9843" gradientUnits="userSpaceOnUse">
<stop stop-color="#6873C6"/>
<stop offset="1" stop-color="#35BCB5"/>
</linearGradient>
<linearGradient id="paint2_linear_109_355" x1="14.8828" y1="31.0781" x2="33.4652" y2="31.0781" gradientUnits="userSpaceOnUse">
<stop stop-color="#6873C6"/>
<stop offset="1" stop-color="#35BCB5"/>
</linearGradient>
<linearGradient id="paint3_linear_109_355" x1="14.8555" y1="31.0779" x2="33.4925" y2="31.0779" gradientUnits="userSpaceOnUse">
<stop stop-color="#6873C6"/>
<stop offset="1" stop-color="#35BCB5"/>
</linearGradient>
<linearGradient id="paint4_linear_109_355" x1="16.2744" y1="13.0716" x2="53.2756" y2="13.0716" gradientUnits="userSpaceOnUse">
<stop stop-color="#6873C6"/>
<stop offset="1" stop-color="#35BCB5"/>
</linearGradient>
<linearGradient id="paint5_linear_109_355" x1="16.2275" y1="13.0717" x2="53.323" y2="13.0717" gradientUnits="userSpaceOnUse">
<stop stop-color="#6873C6"/>
<stop offset="1" stop-color="#35BCB5"/>
</linearGradient>
</defs>
</svg>
