<svg width="87" height="100" viewBox="0 0 87 100" fill="none" xmlns="http://www.w3.org/2000/svg">
<path d="M81.167 95.3307H82.3227L83.7542 98.1937L85.1726 95.3307H86.3218V99.9273H85.3893V96.7622L84.0826 99.4611H83.4128L82.0995 96.7622V99.9273H81.167V95.3307Z" fill="white"/>
<path d="M78.4098 95.3307C79.0096 95.3307 79.4736 95.4708 79.8019 95.751C80.1347 96.0267 80.301 96.4164 80.301 96.9198C80.301 97.4495 80.1347 97.8632 79.8019 98.1609C79.4736 98.4542 79.0096 98.6009 78.4098 98.6009H77.4511V99.9273H76.4136V95.3307H78.4098ZM78.4098 97.7603C78.6944 97.7603 78.9155 97.6947 79.0731 97.5633C79.235 97.4276 79.316 97.2241 79.316 96.9526C79.316 96.69 79.235 96.493 79.0731 96.3616C78.9155 96.2303 78.6944 96.1646 78.4098 96.1646H77.4511V97.7603H78.4098ZM78.2851 98.2134H79.2963L80.4126 99.9273H79.2372L78.2851 98.2134Z" fill="white"/>
<path d="M73.2637 95.2654C73.6139 95.2654 73.9379 95.3245 74.2356 95.4427C74.5376 95.5609 74.8003 95.7272 75.0236 95.9417C75.2468 96.1563 75.4198 96.4058 75.5423 96.6903C75.6693 96.9749 75.7328 97.2857 75.7328 97.6228C75.7328 97.9555 75.6693 98.2663 75.5423 98.5553C75.4198 98.8442 75.2468 99.0981 75.0236 99.317C74.8003 99.5315 74.5376 99.7 74.2356 99.8226C73.9379 99.9408 73.6139 99.9999 73.2637 99.9999C72.9135 99.9999 72.5874 99.9408 72.2853 99.8226C71.9876 99.7 71.7271 99.5315 71.5039 99.317C71.2806 99.0981 71.1055 98.8442 70.9785 98.5553C70.856 98.2663 70.7947 97.9555 70.7947 97.6228C70.7947 97.2857 70.856 96.9749 70.9785 96.6903C71.1055 96.4014 71.2806 96.1519 71.5039 95.9417C71.7271 95.7272 71.9876 95.5609 72.2853 95.4427C72.5874 95.3245 72.9135 95.2654 73.2637 95.2654ZM73.2769 96.1387C73.0842 96.1387 72.9004 96.176 72.7253 96.2504C72.5545 96.3248 72.4035 96.4299 72.2722 96.5656C72.1452 96.7013 72.0445 96.8589 71.9701 97.0384C71.8957 97.2179 71.8585 97.4127 71.8585 97.6228C71.8585 97.8329 71.8957 98.0299 71.9701 98.2138C72.0445 98.3933 72.1474 98.5531 72.2787 98.6932C72.4101 98.8289 72.5611 98.9361 72.7318 99.0149C72.9026 99.0893 73.0842 99.1266 73.2769 99.1266C73.4695 99.1266 73.649 99.0893 73.8153 99.0149C73.9861 98.9361 74.1349 98.8289 74.2618 98.6932C74.3888 98.5531 74.4873 98.3933 74.5573 98.2138C74.6318 98.0299 74.669 97.8329 74.669 97.6228C74.669 97.4127 74.6318 97.2179 74.5573 97.0384C74.4873 96.8589 74.3888 96.7013 74.2618 96.5656C74.1349 96.4299 73.9861 96.3248 73.8153 96.2504C73.649 96.176 73.4695 96.1387 73.2769 96.1387Z" fill="white"/>
<path d="M67.218 95.3307H70.521V96.1646H68.2555V97.3269H70.3306V98.1609H68.2555V99.9273H67.218V95.3307Z" fill="white"/>
<path d="M62.821 95.3307H66.6625V96.1843H65.2573V99.9273H64.2197V96.1843H62.821V95.3307Z" fill="white"/>
<path d="M60.2499 95.3307H61.3137L63.2705 99.9273H62.1673L60.749 96.3682L59.324 99.9273H58.2471L60.2499 95.3307ZM59.3634 98.2003H62.0754V99.008H59.3634V98.2003Z" fill="white"/>
<path d="M55.1233 95.3307H56.1608V99.054H58.1242V99.9273H55.1233V95.3307Z" fill="white"/>
<path d="M52.6229 95.3307C53.2051 95.3307 53.656 95.4708 53.9756 95.751C54.2996 96.0267 54.4615 96.4164 54.4615 96.9198C54.4615 97.4495 54.2996 97.8632 53.9756 98.1609C53.656 98.4542 53.2051 98.6009 52.6229 98.6009H51.257L51.7101 98.1478V99.9273H50.6726V95.3307H52.6229ZM52.5704 97.7603C52.8593 97.7603 53.0826 97.6947 53.2402 97.5633C53.3978 97.4276 53.4766 97.2241 53.4766 96.9526C53.4766 96.69 53.3978 96.493 53.2402 96.3616C53.0826 96.2303 52.8593 96.1646 52.5704 96.1646H51.257L51.7101 95.7116V98.22L51.257 97.7603H52.5704Z" fill="white"/>
<path d="M44.5068 95.3307H48.3483V96.1843H46.943V99.9273H45.9055V96.1843H44.5068V95.3307Z" fill="white"/>
<path d="M40.5725 95.3307H44.0725V96.1646H41.61V97.2022H43.823V98.0361H41.61V99.0934H44.1447V99.9273H40.5725V95.3307Z" fill="white"/>
<path d="M35.73 95.3307H36.7675V97.5174L38.6718 95.3307H39.8801L36.7675 98.765V99.9273H35.73V95.3307ZM38.0611 97.1234L39.9917 99.9273H38.7506L37.3716 97.9442L38.0611 97.1234Z" fill="white"/>
<path d="M32.9765 95.3307C33.5762 95.3307 34.0403 95.4708 34.3686 95.751C34.7013 96.0267 34.8677 96.4164 34.8677 96.9198C34.8677 97.4495 34.7013 97.8632 34.3686 98.1609C34.0403 98.4542 33.5762 98.6009 32.9765 98.6009H32.0178V99.9273H30.9802V95.3307H32.9765ZM32.9765 97.7603C33.261 97.7603 33.4821 97.6947 33.6397 97.5633C33.8017 97.4276 33.8827 97.2241 33.8827 96.9526C33.8827 96.69 33.8017 96.493 33.6397 96.3616C33.4821 96.2303 33.261 96.1646 32.9765 96.1646H32.0178V97.7603H32.9765ZM32.8517 98.2134H33.863L34.9793 99.9273H33.8039L32.8517 98.2134Z" fill="white"/>
<path d="M27.474 95.3307H28.5378L30.4946 99.9273H29.3915L27.9731 96.3682L26.5481 99.9273H25.4712L27.474 95.3307ZM26.5875 98.2003H29.2995V99.008H26.5875V98.2003Z" fill="white"/>
<path d="M19.8218 95.3307H20.9775L22.409 98.1937L23.8274 95.3307H24.9766V99.9273H24.0441V96.7622L22.7374 99.4611H22.0676L20.7542 96.7622V99.9273H19.8218V95.3307Z" fill="white"/>
<path d="M13.6548 95.3307H17.4963V96.1843H16.091V99.9273H15.0535V96.1843H13.6548V95.3307Z" fill="white"/>
<path d="M11.5468 95.3307C11.8839 95.3307 12.175 95.3767 12.4202 95.4686C12.6653 95.5605 12.8536 95.694 12.9849 95.8692C13.1206 96.0399 13.1885 96.2434 13.1885 96.4798C13.1885 96.7294 13.1162 96.9461 12.9718 97.1299C12.8317 97.3094 12.6391 97.4298 12.3939 97.4911C12.6916 97.548 12.9258 97.6815 13.0965 97.8917C13.2673 98.0974 13.3526 98.3513 13.3526 98.6534C13.3526 98.9161 13.2804 99.1437 13.1359 99.3363C12.9959 99.5246 12.7967 99.6712 12.5384 99.7763C12.2801 99.877 11.9737 99.9273 11.6191 99.9273H9.43237V95.3307H11.5468ZM11.4943 97.189C11.6869 97.189 11.8401 97.1431 11.954 97.0511C12.0678 96.9548 12.1247 96.8235 12.1247 96.6571C12.1247 96.4952 12.0678 96.3704 11.954 96.2828C11.8401 96.1909 11.6869 96.1471 11.4943 96.1515H10.4699V97.189H11.4943ZM11.4943 99.1065C11.7394 99.1065 11.9321 99.0561 12.0722 98.9555C12.2122 98.8548 12.2823 98.7125 12.2823 98.5286C12.2823 98.3579 12.2122 98.2222 12.0722 98.1215C11.9321 98.0208 11.7394 97.9727 11.4943 97.977H10.4699V99.1065H11.4943Z" fill="white"/>
<path d="M5.04639 95.3307H8.54639V96.1646H6.08391V97.2022H8.29686V98.0361H6.08391V99.0934H8.61862V99.9273H5.04639V95.3307Z" fill="white"/>
<path d="M1.94372 95.3307C2.30269 95.3307 2.62883 95.3876 2.92214 95.5014C3.21983 95.6109 3.47593 95.7685 3.69044 95.9742C3.90495 96.1756 4.0713 96.4164 4.1895 96.6965C4.3077 96.9767 4.3668 97.2875 4.3668 97.629C4.3668 97.9661 4.3077 98.2747 4.1895 98.5549C4.0713 98.8351 3.90276 99.078 3.68387 99.2838C3.46498 99.4895 3.20451 99.6493 2.90244 99.7632C2.60476 99.8726 2.27424 99.9273 1.91088 99.9273H0V95.3307H1.94372ZM1.96998 99.0802C2.16698 99.0802 2.34647 99.0452 2.50845 98.9752C2.67042 98.9051 2.81051 98.8066 2.92871 98.6797C3.05129 98.5483 3.14541 98.3951 3.21107 98.22C3.27674 98.0449 3.30957 97.8501 3.30957 97.6356C3.30957 97.4211 3.27455 97.2263 3.20451 97.0511C3.13446 96.8717 3.03815 96.7162 2.91558 96.5849C2.793 96.4492 2.64635 96.3463 2.47561 96.2763C2.30926 96.2062 2.12539 96.1712 1.92402 96.1712H1.03753V99.0802H1.96998Z" fill="white"/>
<path d="M74.7953 75.2183H78.0339L80.6037 79.0729L83.2087 75.2183H86.4649L82.3815 81.1147L86.8346 87.5391H83.4903L80.6037 83.3324L77.7523 87.5391H74.4961L78.9316 81.2379L74.7953 75.2183Z" fill="white"/>
<path d="M67.2677 75.0425C68.2065 75.0425 69.0748 75.2009 69.8727 75.5177C70.6824 75.8345 71.3864 76.2804 71.9848 76.8554C72.5833 77.4304 73.0468 78.0992 73.3753 78.8619C73.7156 79.6247 73.8858 80.4578 73.8858 81.3613C73.8858 82.2531 73.7156 83.0862 73.3753 83.8607C73.0468 84.6352 72.5833 85.3157 71.9848 85.9024C71.3864 86.4774 70.6824 86.9292 69.8727 87.2577C69.0748 87.5746 68.2065 87.733 67.2677 87.733C66.329 87.733 65.4548 87.5746 64.6451 87.2577C63.8472 86.9292 63.149 86.4774 62.5506 85.9024C61.9521 85.3157 61.4828 84.6352 61.1425 83.8607C60.8139 83.0862 60.6497 82.2531 60.6497 81.3613C60.6497 80.4578 60.8139 79.6247 61.1425 78.8619C61.4828 78.0875 61.9521 77.4186 62.5506 76.8554C63.149 76.2804 63.8472 75.8345 64.6451 75.5177C65.4548 75.2009 66.329 75.0425 67.2677 75.0425ZM67.3029 77.3834C66.7866 77.3834 66.2938 77.4832 65.8244 77.6827C65.3668 77.8821 64.962 78.1638 64.6099 78.5275C64.2696 78.8913 63.9998 79.3137 63.8003 79.7948C63.6008 80.2759 63.5011 80.7981 63.5011 81.3613C63.5011 81.9246 63.6008 82.4526 63.8003 82.9454C63.9998 83.4265 64.2755 83.8548 64.6275 84.2303C64.9796 84.5941 65.3844 84.8816 65.842 85.0928C66.2997 85.2923 66.7866 85.392 67.3029 85.392C67.8192 85.392 68.3003 85.2923 68.7462 85.0928C69.2039 84.8816 69.6028 84.5941 69.9431 84.2303C70.2834 83.8548 70.5474 83.4265 70.7352 82.9454C70.9346 82.4526 71.0344 81.9246 71.0344 81.3613C71.0344 80.7981 70.9346 80.2759 70.7352 79.7948C70.5474 79.3137 70.2834 78.8913 69.9431 78.5275C69.6028 78.1638 69.2039 77.8821 68.7462 77.6827C68.3003 77.4832 67.8192 77.3834 67.3029 77.3834Z" fill="white"/>
<path d="M54.6669 75.2183C55.5704 75.2183 56.3507 75.3415 57.0078 75.5879C57.6649 75.8343 58.1695 76.1922 58.5215 76.6616C58.8853 77.1192 59.0672 77.6648 59.0672 78.2985C59.0672 78.9673 58.8736 79.5482 58.4863 80.041C58.1108 80.5221 57.5945 80.8448 56.9374 81.0091C57.7353 81.1616 58.3631 81.5195 58.8208 82.0827C59.2784 82.6342 59.5072 83.3148 59.5072 84.1245C59.5072 84.8285 59.3136 85.4387 58.9264 85.955C58.5509 86.4596 58.017 86.8527 57.3246 87.1343C56.6323 87.4042 55.8109 87.5391 54.8605 87.5391H48.9993V75.2183H54.6669ZM54.5261 80.1994C55.0424 80.1994 55.4531 80.0762 55.7581 79.8298C56.0632 79.5716 56.2158 79.2196 56.2158 78.7737C56.2158 78.3395 56.0632 78.0051 55.7581 77.7704C55.4531 77.524 55.0424 77.4067 54.5261 77.4184H51.7803V80.1994H54.5261ZM54.5261 85.339C55.1832 85.339 55.6995 85.204 56.075 84.9341C56.4505 84.6643 56.6382 84.2829 56.6382 83.7901C56.6382 83.3324 56.4505 82.9687 56.075 82.6988C55.6995 82.4289 55.1832 82.2998 54.5261 82.3116H51.7803V85.339H54.5261Z" fill="white"/>
<path d="M37.2134 75.2183H47.5101V77.5064H43.7434V87.5391H40.9624V77.5064H37.2134V75.2183Z" fill="white"/>
<path d="M31.5638 75.2183C32.4674 75.2183 33.2477 75.3415 33.9048 75.5879C34.5619 75.8343 35.0665 76.1922 35.4185 76.6616C35.7823 77.1192 35.9641 77.6648 35.9641 78.2985C35.9641 78.9673 35.7705 79.5482 35.3833 80.041C35.0078 80.5221 34.4915 80.8448 33.8344 81.0091C34.6323 81.1616 35.2601 81.5195 35.7177 82.0827C36.1754 82.6342 36.4042 83.3148 36.4042 84.1245C36.4042 84.8285 36.2106 85.4387 35.8233 85.955C35.4478 86.4596 34.9139 86.8527 34.2216 87.1343C33.5293 87.4042 32.7079 87.5391 31.7575 87.5391H25.8962V75.2183H31.5638ZM31.423 80.1994C31.9393 80.1994 32.35 80.0762 32.6551 79.8298C32.9602 79.5716 33.1127 79.2196 33.1127 78.7737C33.1127 78.3395 32.9602 78.0051 32.6551 77.7704C32.35 77.524 31.9393 77.4067 31.423 77.4184H28.6772V80.1994H31.423ZM31.423 85.339C32.0801 85.339 32.5964 85.204 32.9719 84.9341C33.3474 84.6643 33.5352 84.2829 33.5352 83.7901C33.5352 83.3324 33.3474 82.9687 32.9719 82.6988C32.5964 82.4289 32.0801 82.2998 31.423 82.3116H28.6772V85.339H31.423Z" fill="white"/>
<path d="M14.1396 75.2183H23.5211V77.4536H16.9206V80.2346H22.8523V82.47H16.9206V85.3038H23.7147V87.5391H14.1396V75.2183Z" fill="white"/>
<path d="M5.82178 75.2183C6.78398 75.2183 7.65818 75.3708 8.44436 75.6759C9.24229 75.9692 9.92874 76.3917 10.5037 76.9432C11.0787 77.483 11.5246 78.1283 11.8414 78.8793C12.1582 79.6303 12.3166 80.4634 12.3166 81.3787C12.3166 82.2822 12.1582 83.1095 11.8414 83.8605C11.5246 84.6115 11.0728 85.2627 10.4861 85.8142C9.8994 86.3657 9.20122 86.794 8.39156 87.0991C7.59364 87.3924 6.70771 87.5391 5.73378 87.5391H0.611816V75.2183H5.82178ZM5.89219 85.2686C6.42022 85.2686 6.90132 85.1747 7.33549 84.9869C7.76965 84.7992 8.14514 84.5352 8.46197 84.1949C8.79052 83.8429 9.04281 83.4322 9.21882 82.9628C9.39483 82.4934 9.48284 81.9713 9.48284 81.3963C9.48284 80.8213 9.38896 80.2992 9.20122 79.8298C9.01347 79.3487 8.75532 78.9321 8.42676 78.5801C8.09821 78.2163 7.70511 77.9406 7.24748 77.7528C6.80158 77.5651 6.30875 77.4712 5.76898 77.4712H3.39281V85.2686H5.89219Z" fill="white"/>
<path d="M67.8799 18.6237L44.8291 35.7172V58.8357L67.8799 41.7422V18.6237Z" fill="white"/>
<path fill-rule="evenodd" clip-rule="evenodd" d="M67.9147 18.5559V41.7587L44.7961 58.9024V35.6996L67.9147 18.5559ZM44.8638 35.7337V58.768L67.847 41.7247V18.6904L44.8638 35.7337Z" fill="white"/>
<path d="M18.4619 41.5725V18.7585L41.5128 36.3598V58.9367L18.4619 41.5725Z" fill="white"/>
<path fill-rule="evenodd" clip-rule="evenodd" d="M18.4277 18.6902L41.5463 36.3431V59.0047L18.4277 41.5894V18.6902ZM18.4954 18.8271V41.5557L41.4786 58.8689V36.3766L18.4954 18.8271Z" fill="white"/>
<path d="M20.188 15.5435L43.0019 0.0408936L66.0866 15.5435L43.0019 32.637L20.188 15.5435Z" fill="white"/>
<path fill-rule="evenodd" clip-rule="evenodd" d="M43.0027 0L66.1462 15.5421L43.0026 32.6792L20.1306 15.5421L43.0027 0ZM43.0029 0.0816954L20.2471 15.5448L43.0029 32.5948L66.0288 15.5448L43.0029 0.0816954Z" fill="white"/>
</svg>
