<svg width="129" height="100" viewBox="0 0 129 100" fill="none" xmlns="http://www.w3.org/2000/svg">
<path d="M82.1429 75H89.2857V60.7143H103.571V53.5714H89.2857V39.2857H82.1429V53.5714H67.8571V60.7143H82.1429V75ZM11.5429 100C8.25238 100 5.50714 98.9 3.30714 96.7C1.10714 94.5 0.0047619 91.7524 0 88.4571V11.5429C0 8.25238 1.10238 5.50714 3.30714 3.30714C5.51191 1.10714 8.25476 0.0047619 11.5357 0H47.1143L61.4 14.2857H117.036C120.321 14.2857 123.067 15.3881 125.271 17.5929C127.476 19.7976 128.576 22.5429 128.571 25.8286V88.4643C128.571 91.75 127.471 94.4952 125.271 96.7C123.071 98.9048 120.326 100.005 117.036 100H11.5429ZM11.5429 92.8571H117.036C118.317 92.8571 119.369 92.4452 120.193 91.6214C121.017 90.7976 121.429 89.7452 121.429 88.4643V25.8214C121.429 24.5405 121.017 23.4881 120.193 22.6643C119.369 21.8405 118.317 21.4286 117.036 21.4286H58.5357L44.25 7.14286H11.5357C10.2548 7.14286 9.20238 7.55476 8.37857 8.37857C7.55476 9.20238 7.14286 10.2571 7.14286 11.5429V88.4643C7.14286 89.7452 7.55476 90.7976 8.37857 91.6214C9.20238 92.4452 10.2571 92.8571 11.5429 92.8571Z" fill="url(#paint0_linear_332_106)"/>
<defs>
<linearGradient id="paint0_linear_332_106" x1="0" y1="50" x2="128.571" y2="50" gradientUnits="userSpaceOnUse">
<stop stop-color="#6873C6"/>
<stop offset="1" stop-color="#35BCB5"/>
</linearGradient>
</defs>
</svg>
