<svg width="120" height="120" viewBox="0 0 120 120" fill="none" xmlns="http://www.w3.org/2000/svg">
<path d="M38.82 43.6347C38.8184 38.8589 39.7304 34.1297 41.5038 29.7173C43.2772 25.3049 45.8773 21.2957 49.1554 17.9191C52.4335 14.5424 56.3254 11.8644 60.6086 10.0381C64.8919 8.21185 69.4824 7.2731 74.118 7.27554V0C62.8855 0.001639 52.1135 4.59938 44.171 12.7821C36.2284 20.9648 31.7656 32.0625 31.764 43.6347H38.82ZM74.118 18.1796C67.566 18.1828 61.2833 20.8658 56.6503 25.6388C52.0174 30.4119 49.4132 36.8846 49.41 43.6347H42.36C42.36 34.9556 45.7066 26.632 51.6635 20.495C57.6204 14.358 65.6997 10.9102 74.124 10.9102L74.118 18.1796ZM74.118 29.0898C70.3737 29.0898 66.7827 30.6222 64.1351 33.3499C61.4874 36.0776 60 39.7771 60 43.6347H52.938C52.938 37.8475 55.1695 32.2974 59.1415 28.2053C63.1135 24.1132 68.5007 21.8142 74.118 21.8142V29.0898ZM42.354 79.9938C37.7184 79.9963 33.1279 79.0575 28.8446 77.2312C24.5614 75.405 20.6695 72.7269 17.3914 69.3503C14.1133 65.9736 11.5132 61.9645 9.7398 57.5521C7.9664 53.1396 7.05442 48.4104 7.056 43.6347H0C0.00159089 55.2068 4.46439 66.3045 12.407 74.4872C20.3495 82.67 31.1215 87.2677 42.354 87.2694V79.9938ZM17.64 43.6347C17.6432 50.3848 20.2474 56.8575 24.8803 61.6305C29.5133 66.4036 35.796 69.0865 42.348 69.0898V76.3591C33.9237 76.3591 25.8444 72.9114 19.8875 66.7744C13.9306 60.6373 10.584 52.3137 10.584 43.6347H17.64ZM28.23 43.6347C28.23 47.4922 29.7174 51.1918 32.3651 53.9195C35.0127 56.6472 38.6037 58.1796 42.348 58.1796V65.4489C36.7318 65.4489 31.3454 63.1508 27.3736 59.0601C23.4018 54.9693 21.1696 49.4207 21.168 43.6347H28.23ZM77.64 40C82.2751 39.9984 86.865 40.9377 91.1475 42.7644C95.4301 44.591 99.3213 47.2691 102.599 50.6457C105.876 54.0223 108.476 58.0312 110.249 62.4432C112.022 66.8552 112.934 71.5839 112.932 76.3591H120C119.998 64.787 115.536 53.6893 107.593 45.5066C99.6505 37.3238 88.8785 32.7261 77.646 32.7245L77.64 40ZM102.348 76.3591C102.349 73.0161 101.71 69.7057 100.469 66.6169C99.2274 63.5282 97.4075 60.7217 95.113 58.3579C92.8185 55.994 90.0943 54.119 87.0963 52.84C84.0982 51.5611 80.8849 50.9032 77.64 50.904V43.6347C86.0643 43.6347 94.1436 47.0824 100.101 53.2195C106.057 59.3565 109.404 67.6801 109.404 76.3591H102.348ZM91.758 76.3591C91.758 72.5016 90.2706 68.802 87.6229 66.0744C84.9753 63.3467 81.3843 61.8142 77.64 61.8142V54.5449C83.2573 54.5449 88.6445 56.8438 92.6165 60.9359C96.5885 65.0281 98.82 70.5782 98.82 76.3653L91.758 76.3591ZM56.466 76.3591C56.466 80.2156 54.9794 83.9142 52.3331 86.6417C49.6867 89.3693 46.0973 90.9024 42.354 90.904V98.1796C47.9713 98.1796 53.3585 95.8806 57.3305 91.7885C61.3025 87.6964 63.534 82.1463 63.534 76.3591H56.466ZM67.05 76.3591C67.0468 83.1082 64.4435 89.58 59.8118 94.3528C55.1801 99.1257 48.899 101.809 42.348 101.814V109.084C50.7723 109.084 58.8516 105.636 64.8085 99.4988C70.7654 93.3618 74.112 85.0382 74.112 76.3591H67.05ZM42.36 112.724C46.9951 112.726 51.585 111.787 55.8675 109.96C60.1501 108.133 64.0413 105.455 67.3187 102.079C70.5962 98.7022 73.1957 94.6933 74.9688 90.2813C76.7418 85.8693 77.6536 81.1405 77.652 76.3653H84.714C84.7124 87.9385 80.2488 99.0372 72.3049 107.22C64.3611 115.403 53.5875 120 42.354 120L42.36 112.724Z" fill="white"/>
</svg>
